<?xml version="1.0" encoding="UTF-8" standalone="no"?>
<!DOCTYPE svg PUBLIC "-//W3C//DTD SVG 1.1//EN"
 "http://www.w3.org/Graphics/SVG/1.1/DTD/svg11.dtd">
<!-- Generated by graphviz version 10.0.1 (0)
 -->
<!-- Pages: 1 -->
<svg width="2398pt" height="582pt"
 viewBox="0.00 0.00 2398.00 582.00" xmlns="http://www.w3.org/2000/svg" xmlns:xlink="http://www.w3.org/1999/xlink">
<g id="graph0" class="graph" transform="scale(1 1) rotate(0) translate(4 578)">
<polygon fill="#0d1117" stroke="none" points="-4,4 -4,-578 2394,-578 2394,4 -4,4"/>
<!-- node_System(0) -->
<g id="node1" class="node">
<title>node_System(0)</title>
<g id="a_node1"><a xlink:title="bevy_window::system::close_when_requested">
<polygon fill="lightgrey" stroke="black" points="346.75,-36 171,-36 171,0 346.75,0 346.75,-36"/>
<text text-anchor="middle" x="258.88" y="-13.32" font-family="Times,serif" font-size="14.00">close_when_requested</text>
</a>
</g>
</g>
<!-- node_System(1) -->
<g id="node2" class="node">
<title>node_System(1)</title>
<g id="a_node2"><a xlink:title="tetris_rs::kbd_input">
<polygon fill="lightgrey" stroke="black" points="302.12,-155 215.62,-155 215.62,-119 302.12,-119 302.12,-155"/>
<text text-anchor="middle" x="258.88" y="-132.32" font-family="Times,serif" font-size="14.00">kbd_input</text>
</a>
</g>
</g>
<!-- node_System(2) -->
<g id="node3" class="node">
<title>node_System(2)</title>
<g id="a_node3"><a xlink:title="tetris_rs::event_demo::toggle_pause">
<polygon fill="lightgrey" stroke="black" points="313.75,-83 204,-83 204,-47 313.75,-47 313.75,-83"/>
<text text-anchor="middle" x="258.88" y="-60.33" font-family="Times,serif" font-size="14.00">toggle_pause</text>
</a>
</g>
</g>
<!-- node_System(2)&#45;&gt;node_System(1) -->
<g id="edge13" class="edge">
<title>node_System(2)&#45;&gt;node_System(1)</title>
<path fill="none" stroke="#c93526" stroke-width="2" d="M258.88,-83.17C258.88,-94 258.88,-107.71 258.88,-118.59"/>
<g id="a_edge13&#45;label"><a xlink:title="toggle_pause — kbd_input">
<polygon fill="#c6e6ff" stroke="none" points="183.5,-90.38 183.5,-111.62 303,-111.62 303,-90.38 183.5,-90.38"/>
<text text-anchor="start" x="185.5" y="-96.33" font-family="Times,serif" font-size="14.00" fill="#c93526">Events&lt;Pause&gt;</text>
</a>
</g>
</g>
<!-- node_System(3) -->
<g id="node4" class="node">
<title>node_System(3)</title>
<g id="a_node4"><a xlink:title="tetris_rs::event_demo::reset_game">
<polygon fill="lightgrey" stroke="black" points="308.12,-433 209.62,-433 209.62,-397 308.12,-397 308.12,-433"/>
<text text-anchor="middle" x="258.88" y="-410.32" font-family="Times,serif" font-size="14.00">reset_game</text>
</a>
</g>
</g>
<!-- node_System(4) -->
<g id="node5" class="node">
<title>node_System(4)</title>
<g id="a_node5"><a xlink:title="tetris_rs::event_demo::reset_tetroids">
<polygon fill="lightgrey" stroke="black" points="316.75,-249 201,-249 201,-213 316.75,-213 316.75,-249"/>
<text text-anchor="middle" x="258.88" y="-226.32" font-family="Times,serif" font-size="14.00">reset_tetroids</text>
</a>
</g>
</g>
<!-- node_System(5) -->
<g id="node6" class="node">
<title>node_System(5)</title>
<g id="a_node6"><a xlink:title="tetris_rs::event_demo::reset_debug_shapes">
<polygon fill="lightgrey" stroke="black" points="338.88,-202 178.88,-202 178.88,-166 338.88,-166 338.88,-202"/>
<text text-anchor="middle" x="258.88" y="-179.32" font-family="Times,serif" font-size="14.00">reset_debug_shapes</text>
</a>
</g>
</g>
<!-- node_System(6) -->
<g id="node7" class="node">
<title>node_System(6)</title>
<g id="a_node7"><a xlink:title="tetris_rs::event_demo::tetroid_hit_compound">
<polygon fill="lightgrey" stroke="black" points="344.5,-361 173.25,-361 173.25,-325 344.5,-325 344.5,-361"/>
<text text-anchor="middle" x="258.88" y="-338.32" font-family="Times,serif" font-size="14.00">tetroid_hit_compound</text>
</a>
</g>
</g>
<!-- node_System(6)&#45;&gt;node_System(3) -->
<g id="edge14" class="edge">
<title>node_System(6)&#45;&gt;node_System(3)</title>
<path fill="none" stroke="#c93526" stroke-width="2" d="M258.88,-361.17C258.88,-372 258.88,-385.71 258.88,-396.59"/>
<g id="a_edge14&#45;label"><a xlink:title="tetroid_hit_compound — reset_game">
<polygon fill="#c6e6ff" stroke="none" points="180.12,-368.38 180.12,-389.62 306.38,-389.62 306.38,-368.38 180.12,-368.38"/>
<text text-anchor="start" x="182.12" y="-374.32" font-family="Times,serif" font-size="14.00" fill="#c93526">Events&lt;Freeze&gt;</text>
</a>
</g>
</g>
<!-- node_System(6)&#45;&gt;node_System(4) -->
<g id="edge15" class="edge">
<title>node_System(6)&#45;&gt;node_System(4)</title>
<path fill="none" stroke="#c93526" stroke-width="2" d="M172.79,-335.91C99.15,-326.58 10.94,-305.56 51.25,-259.38 87.37,-217.98 153.12,-215.55 200.97,-220.51"/>
<g id="a_edge15&#45;label"><a xlink:title="tetroid_hit_compound — reset_tetroids">
<polygon fill="#c6e6ff" stroke="none" points="24.75,-261.38 24.75,-282.62 151,-282.62 151,-261.38 24.75,-261.38"/>
<text text-anchor="start" x="26.75" y="-267.32" font-family="Times,serif" font-size="14.00" fill="#c93526">Events&lt;Freeze&gt;</text>
</a>
</g>
</g>
<!-- node_System(6)&#45;&gt;node_System(5) -->
<g id="edge16" class="edge">
<title>node_System(6)&#45;&gt;node_System(5)</title>
<path fill="none" stroke="#c93526" stroke-width="2" d="M172.81,-355.28C129.75,-356.21 80.67,-348.34 51.25,-314.62 5.61,-262.32 102.26,-223.67 178.51,-202.48"/>
<g id="a_edge16&#45;label"><a xlink:title="tetroid_hit_compound — reset_debug_shapes">
<polygon fill="#c6e6ff" stroke="none" points="24.75,-291.38 24.75,-312.62 151,-312.62 151,-291.38 24.75,-291.38"/>
<text text-anchor="start" x="26.75" y="-297.32" font-family="Times,serif" font-size="14.00" fill="#c93526">Events&lt;Freeze&gt;</text>
</a>
</g>
</g>
<!-- node_System(7) -->
<g id="node8" class="node">
<title>node_System(7)</title>
<g id="a_node8"><a xlink:title="tetris_rs::event_demo::freeze">
<polygon fill="lightgrey" stroke="black" points="444,-361 383.75,-361 383.75,-325 444,-325 444,-361"/>
<text text-anchor="middle" x="413.88" y="-338.32" font-family="Times,serif" font-size="14.00">freeze</text>
</a>
</g>
</g>
<!-- node_System(6)&#45;&gt;node_System(7) -->
<g id="edge1" class="edge">
<title>node_System(6)&#45;&gt;node_System(7)</title>
<g id="a_edge1"><a xlink:title="tetroid_hit_compound → freeze">
<path fill="none" stroke="#eede00" stroke-width="2" d="M344.88,-343C353.78,-343 362.52,-343 370.62,-343"/>
<polygon fill="#eede00" stroke="#eede00" stroke-width="2" points="370.53,-346.5 380.53,-343 370.53,-339.5 370.53,-346.5"/>
</a>
</g>
</g>
<!-- node_System(8) -->
<g id="node9" class="node">
<title>node_System(8)</title>
<g id="a_node9"><a xlink:title="tetris_rs::event_demo::row_intersections">
<polygon fill="lightgrey" stroke="black" points="789.75,-361 647,-361 647,-325 789.75,-325 789.75,-361"/>
<text text-anchor="middle" x="718.38" y="-338.32" font-family="Times,serif" font-size="14.00">row_intersections</text>
</a>
</g>
</g>
<!-- node_System(7)&#45;&gt;node_System(8) -->
<g id="edge6" class="edge">
<title>node_System(7)&#45;&gt;node_System(8)</title>
<g id="a_edge6"><a xlink:title="freeze → row_intersections">
<path fill="none" stroke="#0090cc" stroke-width="2" d="M444.43,-343C487.89,-343 570.72,-343 633.78,-343"/>
<polygon fill="#0090cc" stroke="#0090cc" stroke-width="2" points="633.48,-346.5 643.48,-343 633.48,-339.5 633.48,-346.5"/>
</a>
</g>
</g>
<!-- node_System(9) -->
<g id="node10" class="node">
<title>node_System(9)</title>
<g id="a_node10"><a xlink:title="tetris_rs::event_demo::partitions">
<polygon fill="lightgrey" stroke="black" points="912.5,-361 826.75,-361 826.75,-325 912.5,-325 912.5,-361"/>
<text text-anchor="middle" x="869.62" y="-338.32" font-family="Times,serif" font-size="14.00">partitions</text>
</a>
</g>
</g>
<!-- node_System(8)&#45;&gt;node_System(9) -->
<g id="edge2" class="edge">
<title>node_System(8)&#45;&gt;node_System(9)</title>
<g id="a_edge2"><a xlink:title="row_intersections → partitions">
<path fill="none" stroke="#881877" stroke-width="2" d="M790.07,-343C797.98,-343 805.95,-343 813.63,-343"/>
<polygon fill="#881877" stroke="#881877" stroke-width="2" points="813.59,-346.5 823.59,-343 813.59,-339.5 813.59,-346.5"/>
</a>
</g>
</g>
<!-- node_System(10) -->
<g id="node11" class="node">
<title>node_System(10)</title>
<g id="a_node11"><a xlink:title="tetris_rs::event_demo::clear_hit_map">
<polygon fill="lightgrey" stroke="black" points="1064.5,-361 949.5,-361 949.5,-325 1064.5,-325 1064.5,-361"/>
<text text-anchor="middle" x="1007" y="-338.32" font-family="Times,serif" font-size="14.00">clear_hit_map</text>
</a>
</g>
</g>
<!-- node_System(9)&#45;&gt;node_System(10) -->
<g id="edge3" class="edge">
<title>node_System(9)&#45;&gt;node_System(10)</title>
<g id="a_edge3"><a xlink:title="partitions → clear_hit_map">
<path fill="none" stroke="#00b0cc" stroke-width="2" d="M912.72,-343C920.17,-343 928.1,-343 936.07,-343"/>
<polygon fill="#00b0cc" stroke="#00b0cc" stroke-width="2" points="935.98,-346.5 945.98,-343 935.98,-339.5 935.98,-346.5"/>
</a>
</g>
</g>
<!-- node_System(19) -->
<g id="node20" class="node">
<title>node_System(19)</title>
<g id="a_node20"><a xlink:title="tetris_rs::arena::render_row_density">
<polygon fill="lightgrey" stroke="black" points="337.38,-298 180.38,-298 180.38,-262 337.38,-262 337.38,-298"/>
<text text-anchor="middle" x="258.88" y="-275.32" font-family="Times,serif" font-size="14.00">render_row_density</text>
</a>
</g>
</g>
<!-- node_System(9)&#45;&gt;node_System(19) -->
<g id="edge17" class="edge">
<title>node_System(9)&#45;&gt;node_System(19)</title>
<path fill="none" stroke="#c93526" stroke-width="2" d="M826.44,-328.94C814.68,-325.51 801.82,-322.19 789.75,-320 630.9,-291.17 441.62,-283.06 337.74,-280.82"/>
<g id="a_edge17&#45;label"><a xlink:title="partitions — render_row_density">
<polygon fill="#c6e6ff" stroke="none" points="464,-299 464,-320.25 627,-320.25 627,-299 464,-299"/>
<text text-anchor="start" x="466" y="-304.95" font-family="Times,serif" font-size="14.00" fill="#c93526">Events&lt;RowDensity&gt;</text>
</a>
</g>
</g>
<!-- node_System(11) -->
<g id="node12" class="node">
<title>node_System(11)</title>
<g id="a_node12"><a xlink:title="tetris_rs::event_demo::clear_partition_map">
<polygon fill="lightgrey" stroke="black" points="1259.25,-361 1101.5,-361 1101.5,-325 1259.25,-325 1259.25,-361"/>
<text text-anchor="middle" x="1180.38" y="-338.32" font-family="Times,serif" font-size="14.00">clear_partition_map</text>
</a>
</g>
</g>
<!-- node_System(10)&#45;&gt;node_System(11) -->
<g id="edge4" class="edge">
<title>node_System(10)&#45;&gt;node_System(11)</title>
<g id="a_edge4"><a xlink:title="clear_hit_map → clear_partition_map">
<path fill="none" stroke="#aa3a55" stroke-width="2" d="M1064.59,-343C1072.18,-343 1080.11,-343 1088.1,-343"/>
<polygon fill="#aa3a55" stroke="#aa3a55" stroke-width="2" points="1088.1,-346.5 1098.1,-343 1088.1,-339.5 1088.1,-346.5"/>
</a>
</g>
</g>
<!-- node_System(12) -->
<g id="node13" class="node">
<title>node_System(12)</title>
<g id="a_node13"><a xlink:title="tetris_rs::event_demo::check_row_densities">
<polygon fill="lightgrey" stroke="black" points="1457.75,-361 1296.25,-361 1296.25,-325 1457.75,-325 1457.75,-361"/>
<text text-anchor="middle" x="1377" y="-338.32" font-family="Times,serif" font-size="14.00">check_row_densities</text>
</a>
</g>
</g>
<!-- node_System(11)&#45;&gt;node_System(12) -->
<g id="edge5" class="edge">
<title>node_System(11)&#45;&gt;node_System(12)</title>
<g id="a_edge5"><a xlink:title="clear_partition_map → check_row_densities">
<path fill="none" stroke="#44d488" stroke-width="2" d="M1259.7,-343C1267.34,-343 1275.15,-343 1282.92,-343"/>
<polygon fill="#44d488" stroke="#44d488" stroke-width="2" points="1282.91,-346.5 1292.91,-343 1282.91,-339.5 1282.91,-346.5"/>
</a>
</g>
</g>
<!-- node_System(13) -->
<g id="node14" class="node">
<title>node_System(13)</title>
<g id="a_node14"><a xlink:title="tetris_rs::event_demo::send_slice">
<polygon fill="lightgrey" stroke="black" points="1583.5,-361 1494.75,-361 1494.75,-325 1583.5,-325 1583.5,-361"/>
<text text-anchor="middle" x="1539.12" y="-338.32" font-family="Times,serif" font-size="14.00">send_slice</text>
</a>
</g>
</g>
<!-- node_System(12)&#45;&gt;node_System(13) -->
<g id="edge7" class="edge">
<title>node_System(12)&#45;&gt;node_System(13)</title>
<g id="a_edge7"><a xlink:title="check_row_densities → send_slice">
<path fill="none" stroke="#ee9e44" stroke-width="2" d="M1458.06,-343C1465.98,-343 1473.9,-343 1481.5,-343"/>
<polygon fill="#ee9e44" stroke="#ee9e44" stroke-width="2" points="1481.34,-346.5 1491.34,-343 1481.34,-339.5 1481.34,-346.5"/>
</a>
</g>
</g>
<!-- node_System(14) -->
<g id="node15" class="node">
<title>node_System(14)</title>
<g id="a_node15"><a xlink:title="tetris_rs::event_demo::deactivate_tetroid">
<polygon fill="lightgrey" stroke="black" points="1766.25,-361 1620.5,-361 1620.5,-325 1766.25,-325 1766.25,-361"/>
<text text-anchor="middle" x="1693.38" y="-338.32" font-family="Times,serif" font-size="14.00">deactivate_tetroid</text>
</a>
</g>
</g>
<!-- node_System(13)&#45;&gt;node_System(14) -->
<g id="edge8" class="edge">
<title>node_System(13)&#45;&gt;node_System(14)</title>
<g id="a_edge8"><a xlink:title="send_slice → deactivate_tetroid">
<path fill="none" stroke="#663699" stroke-width="2" d="M1583.75,-343C1591.25,-343 1599.26,-343 1607.42,-343"/>
<polygon fill="#663699" stroke="#663699" stroke-width="2" points="1607.25,-346.5 1617.25,-343 1607.25,-339.5 1607.25,-346.5"/>
</a>
</g>
</g>
<!-- node_System(15) -->
<g id="node16" class="node">
<title>node_System(15)</title>
<g id="a_node16"><a xlink:title="tetris_rs::event_demo::unfreeze">
<polygon fill="lightgrey" stroke="black" points="1881.5,-361 1803.25,-361 1803.25,-325 1881.5,-325 1881.5,-361"/>
<text text-anchor="middle" x="1842.38" y="-338.32" font-family="Times,serif" font-size="14.00">unfreeze</text>
</a>
</g>
</g>
<!-- node_System(14)&#45;&gt;node_System(15) -->
<g id="edge9" class="edge">
<title>node_System(14)&#45;&gt;node_System(15)</title>
<g id="a_edge9"><a xlink:title="deactivate_tetroid → unfreeze">
<path fill="none" stroke="#3363bb" stroke-width="2" d="M1766.58,-343C1774.49,-343 1782.41,-343 1789.99,-343"/>
<polygon fill="#3363bb" stroke="#3363bb" stroke-width="2" points="1789.73,-346.5 1799.73,-343 1789.73,-339.5 1789.73,-346.5"/>
</a>
</g>
</g>
<!-- node_System(16) -->
<g id="node17" class="node">
<title>node_System(16)</title>
<g id="a_node17"><a xlink:title="tetris_rs::event_demo::handle_unfreeze">
<polygon fill="lightgrey" stroke="black" points="2051.5,-361 1918.5,-361 1918.5,-325 2051.5,-325 2051.5,-361"/>
<text text-anchor="middle" x="1985" y="-338.32" font-family="Times,serif" font-size="14.00">handle_unfreeze</text>
</a>
</g>
</g>
<!-- node_System(15)&#45;&gt;node_System(16) -->
<g id="edge10" class="edge">
<title>node_System(15)&#45;&gt;node_System(16)</title>
<g id="a_edge10"><a xlink:title="unfreeze → handle_unfreeze">
<path fill="none" stroke="#22c2bb" stroke-width="2" d="M1881.8,-343C1889.17,-343 1897.12,-343 1905.23,-343"/>
<polygon fill="#22c2bb" stroke="#22c2bb" stroke-width="2" points="1905.01,-346.5 1915.01,-343 1905.01,-339.5 1905.01,-346.5"/>
</a>
</g>
</g>
<!-- node_System(17) -->
<g id="node18" class="node">
<title>node_System(17)</title>
<g id="a_node18"><a xlink:title="tetris_rs::event_demo::block_spawner">
<polygon fill="lightgrey" stroke="black" points="2209.5,-361 2088.5,-361 2088.5,-325 2209.5,-325 2209.5,-361"/>
<text text-anchor="middle" x="2149" y="-338.32" font-family="Times,serif" font-size="14.00">block_spawner</text>
</a>
</g>
</g>
<!-- node_System(16)&#45;&gt;node_System(17) -->
<g id="edge11" class="edge">
<title>node_System(16)&#45;&gt;node_System(17)</title>
<g id="a_edge11"><a xlink:title="handle_unfreeze → block_spawner">
<path fill="none" stroke="#99d955" stroke-width="2" d="M2051.89,-343C2059.58,-343 2067.46,-343 2075.23,-343"/>
<polygon fill="#99d955" stroke="#99d955" stroke-width="2" points="2075.14,-346.5 2085.14,-343 2075.14,-339.5 2075.14,-346.5"/>
</a>
</g>
</g>
<!-- node_System(18) -->
<g id="node19" class="node">
<title>node_System(18)</title>
<g id="a_node19"><a xlink:title="tetris_rs::event_demo::list_active_tetroid">
<polygon fill="lightgrey" stroke="black" points="2390,-361 2246.5,-361 2246.5,-325 2390,-325 2390,-361"/>
<text text-anchor="middle" x="2318.25" y="-338.32" font-family="Times,serif" font-size="14.00">list_active_tetroid</text>
</a>
</g>
</g>
<!-- node_System(17)&#45;&gt;node_System(18) -->
<g id="edge12" class="edge">
<title>node_System(17)&#45;&gt;node_System(18)</title>
<g id="a_edge12"><a xlink:title="block_spawner → list_active_tetroid">
<path fill="none" stroke="#eede00" stroke-width="2" d="M2209.91,-343C2217.51,-343 2225.39,-343 2233.27,-343"/>
<polygon fill="#eede00" stroke="#eede00" stroke-width="2" points="2233.03,-346.5 2243.03,-343 2233.03,-339.5 2233.03,-346.5"/>
</a>
</g>
</g>
<!-- node_System(20) -->
<g id="node21" class="node">
<title>node_System(20)</title>
<g id="a_node21"><a xlink:title="bevy_ecs::schedule::executor::apply_deferred">
<polygon fill="lightgrey" stroke="black" points="320.5,-480 197.25,-480 197.25,-444 320.5,-444 320.5,-480"/>
<text text-anchor="middle" x="258.88" y="-457.32" font-family="Times,serif" font-size="14.00">apply_deferred</text>
</a>
</g>
</g>
<!-- node_System(21) -->
<g id="node22" class="node">
<title>node_System(21)</title>
<g id="a_node22"><a xlink:title="bevy_ecs::schedule::executor::apply_deferred">
<polygon fill="lightgrey" stroke="black" points="320.5,-527 197.25,-527 197.25,-491 320.5,-491 320.5,-527"/>
<text text-anchor="middle" x="258.88" y="-504.32" font-family="Times,serif" font-size="14.00">apply_deferred</text>
</a>
</g>
</g>
<!-- node_System(22) -->
<g id="node23" class="node">
<title>node_System(22)</title>
<g id="a_node23"><a xlink:title="bevy_ecs::schedule::executor::apply_deferred">
<polygon fill="lightgrey" stroke="black" points="320.5,-574 197.25,-574 197.25,-538 320.5,-538 320.5,-574"/>
<text text-anchor="middle" x="258.88" y="-551.33" font-family="Times,serif" font-size="14.00">apply_deferred</text>
</a>
</g>
</g>
</g>
</svg>
